<?xml version="1.0" encoding="UTF-8" standalone="no"?>
<!-- Created with Bouml (http://bouml.free.fr/) -->
<!DOCTYPE svg PUBLIC "-//W3C//DTD SVG 1.1//EN" "http://www.w3.org/Graphics/SVG/1.1/DTD/svg11.dtd">
<svg width="308" height="712" version="1.1" xmlns="http://www.w3.org/2000/svg">
<g>
	<rect fill="#cbcbcb" stroke="none" stroke-opacity="1" x="201" y="209" width="2" height="90" />
	<rect fill="#cbcbcb" stroke="none" stroke-opacity="1" x="157" y="297" width="46" height="2" />
	<rect fill="#ffffc0" stroke="black" stroke-width="1" stroke-opacity="1" x="154" y="206" width="47" height="91" />
	<text font-family="Helvetica" font-size="4" fill="#000000" xml:space="preserve" font-weight="bold" text-anchor="middle" x="178" y="210">Client</text>
	<line stroke="black" stroke-opacity="1" x1="154" y1="212" x2="201" y2="212" />
	<text font-family="Helvetica" font-size="4" fill="#000000" xml:space="preserve" x="155" y="216">_clientName</text>
	<text font-family="Helvetica" font-size="4" fill="#000000" xml:space="preserve" x="155" y="222">_jobTitle</text>
	<text font-family="Helvetica" font-size="4" fill="#000000" xml:space="preserve" x="155" y="228">_email</text>
	<text font-family="Helvetica" font-size="4" fill="#000000" xml:space="preserve" x="155" y="234">_phoneNumber</text>
	<line stroke="black" stroke-opacity="1" x1="154" y1="236" x2="201" y2="236" />
	<text font-family="Helvetica" font-size="4" fill="#000000" xml:space="preserve" x="155" y="240">__construct()</text>
	<text font-family="Helvetica" font-size="4" fill="#000000" xml:space="preserve" x="155" y="246">getClientName()</text>
	<text font-family="Helvetica" font-size="4" fill="#000000" xml:space="preserve" x="155" y="252">setClientName()</text>
	<text font-family="Helvetica" font-size="4" fill="#000000" xml:space="preserve" x="155" y="258">getJobTitle()</text>
	<text font-family="Helvetica" font-size="4" fill="#000000" xml:space="preserve" x="155" y="264">setJobTitle()</text>
	<text font-family="Helvetica" font-size="4" fill="#000000" xml:space="preserve" x="155" y="270">getEmail()</text>
	<text font-family="Helvetica" font-size="4" fill="#000000" xml:space="preserve" x="155" y="276">setEmail()</text>
	<text font-family="Helvetica" font-size="4" fill="#000000" xml:space="preserve" x="155" y="282">getPhoneNumber()</text>
	<text font-family="Helvetica" font-size="4" fill="#000000" xml:space="preserve" x="155" y="288">getWebsite()</text>
	<text font-family="Helvetica" font-size="4" fill="#000000" xml:space="preserve" x="155" y="294">setPhoneNumber()</text>
</g>
<g>
	<rect fill="#cbcbcb" stroke="none" stroke-opacity="1" x="198" y="340" width="2" height="84" />
	<rect fill="#cbcbcb" stroke="none" stroke-opacity="1" x="160" y="422" width="40" height="2" />
	<rect fill="#ffffc0" stroke="black" stroke-width="1" stroke-opacity="1" x="157" y="337" width="41" height="85" />
	<text font-family="Helvetica" font-size="4" fill="#000000" xml:space="preserve" font-weight="bold" text-anchor="middle" x="178" y="341">Project</text>
	<line stroke="black" stroke-opacity="1" x1="157" y1="343" x2="198" y2="343" />
	<text font-family="Helvetica" font-size="4" fill="#000000" xml:space="preserve" x="158" y="347">_projectTitle</text>
	<text font-family="Helvetica" font-size="4" fill="#000000" xml:space="preserve" x="158" y="353">_description</text>
	<text font-family="Helvetica" font-size="4" fill="#000000" xml:space="preserve" x="158" y="359">_status</text>
	<text font-family="Helvetica" font-size="4" fill="#000000" xml:space="preserve" x="158" y="365">_client</text>
	<line stroke="black" stroke-opacity="1" x1="157" y1="367" x2="198" y2="367" />
	<text font-family="Helvetica" font-size="4" fill="#000000" xml:space="preserve" x="158" y="371">__construct()</text>
	<text font-family="Helvetica" font-size="4" fill="#000000" xml:space="preserve" x="158" y="377">getClient()</text>
	<text font-family="Helvetica" font-size="4" fill="#000000" xml:space="preserve" x="158" y="383">getProjectTitle()</text>
	<text font-family="Helvetica" font-size="4" fill="#000000" xml:space="preserve" x="158" y="389">setProjectTitle()</text>
	<text font-family="Helvetica" font-size="4" fill="#000000" xml:space="preserve" x="158" y="395">getDescription()</text>
	<text font-family="Helvetica" font-size="4" fill="#000000" xml:space="preserve" x="158" y="401">setDescription()</text>
	<text font-family="Helvetica" font-size="4" fill="#000000" xml:space="preserve" x="158" y="407">getStatus()</text>
	<text font-family="Helvetica" font-size="4" fill="#000000" xml:space="preserve" x="158" y="413">setStatus()</text>
	<text font-family="Helvetica" font-size="4" fill="#000000" xml:space="preserve" x="158" y="419">setClient()</text>
</g>
<g>
	<rect fill="#cbcbcb" stroke="none" stroke-opacity="1" x="206" y="477" width="2" height="222" />
	<rect fill="#cbcbcb" stroke="none" stroke-opacity="1" x="158" y="697" width="50" height="2" />
	<rect fill="#ffffc0" stroke="black" stroke-width="1" stroke-opacity="1" x="155" y="474" width="51" height="223" />
	<text font-family="Helvetica" font-size="4" fill="#000000" xml:space="preserve" font-weight="bold" text-anchor="middle" x="181" y="478">Course</text>
	<line stroke="black" stroke-opacity="1" x1="155" y1="480" x2="206" y2="480" />
	<text font-family="Helvetica" font-size="4" fill="#000000" xml:space="preserve" x="156" y="484">_courseId</text>
	<text font-family="Helvetica" font-size="4" fill="#000000" xml:space="preserve" x="156" y="490">_courseNumber</text>
	<text font-family="Helvetica" font-size="4" fill="#000000" xml:space="preserve" x="156" y="496">_quarter</text>
	<text font-family="Helvetica" font-size="4" fill="#000000" xml:space="preserve" x="156" y="502">_year</text>
	<text font-family="Helvetica" font-size="4" fill="#000000" xml:space="preserve" x="156" y="508">_instructor</text>
	<text font-family="Helvetica" font-size="4" fill="#000000" xml:space="preserve" x="156" y="514">_github</text>
	<text font-family="Helvetica" font-size="4" fill="#000000" xml:space="preserve" x="156" y="520">_trello</text>
	<text font-family="Helvetica" font-size="4" fill="#000000" xml:space="preserve" x="156" y="526">_url</text>
	<text font-family="Helvetica" font-size="4" fill="#000000" xml:space="preserve" x="156" y="532">_username</text>
	<text font-family="Helvetica" font-size="4" fill="#000000" xml:space="preserve" x="156" y="538">_password</text>
	<text font-family="Helvetica" font-size="4" fill="#000000" xml:space="preserve" x="156" y="544">_instructorNotes</text>
	<text font-family="Helvetica" font-size="4" fill="#000000" xml:space="preserve" x="156" y="550">_project</text>
	<line stroke="black" stroke-opacity="1" x1="155" y1="552" x2="206" y2="552" />
	<text font-family="Helvetica" font-size="4" fill="#000000" xml:space="preserve" x="156" y="556">__construct()</text>
	<text font-family="Helvetica" font-size="4" fill="#000000" xml:space="preserve" x="156" y="562">getCourseId()</text>
	<text font-family="Helvetica" font-size="4" fill="#000000" xml:space="preserve" x="156" y="568">getCourseNumber()</text>
	<text font-family="Helvetica" font-size="4" fill="#000000" xml:space="preserve" x="156" y="574">getQuarter()</text>
	<text font-family="Helvetica" font-size="4" fill="#000000" xml:space="preserve" x="156" y="580">getYear()</text>
	<text font-family="Helvetica" font-size="4" fill="#000000" xml:space="preserve" x="156" y="586">getInstructor()</text>
	<text font-family="Helvetica" font-size="4" fill="#000000" xml:space="preserve" x="156" y="592">getGithub()</text>
	<text font-family="Helvetica" font-size="4" fill="#000000" xml:space="preserve" x="156" y="598">getTrello()</text>
	<text font-family="Helvetica" font-size="4" fill="#000000" xml:space="preserve" x="156" y="604">getUrl()</text>
	<text font-family="Helvetica" font-size="4" fill="#000000" xml:space="preserve" x="156" y="610">getUsername()</text>
	<text font-family="Helvetica" font-size="4" fill="#000000" xml:space="preserve" x="156" y="616">getPassword()</text>
	<text font-family="Helvetica" font-size="4" fill="#000000" xml:space="preserve" x="156" y="622">getInstructorNotes()</text>
	<text font-family="Helvetica" font-size="4" fill="#000000" xml:space="preserve" x="156" y="628">getProject()</text>
	<text font-family="Helvetica" font-size="4" fill="#000000" xml:space="preserve" x="156" y="634">setCourseId()</text>
	<text font-family="Helvetica" font-size="4" fill="#000000" xml:space="preserve" x="156" y="640">setQuarter()</text>
	<text font-family="Helvetica" font-size="4" fill="#000000" xml:space="preserve" x="156" y="646">setYear()</text>
	<text font-family="Helvetica" font-size="4" fill="#000000" xml:space="preserve" x="156" y="652">setInstructor()</text>
	<text font-family="Helvetica" font-size="4" fill="#000000" xml:space="preserve" x="156" y="658">setGithub()</text>
	<text font-family="Helvetica" font-size="4" fill="#000000" xml:space="preserve" x="156" y="664">setTrello()</text>
	<text font-family="Helvetica" font-size="4" fill="#000000" xml:space="preserve" x="156" y="670">setUrl()</text>
	<text font-family="Helvetica" font-size="4" fill="#000000" xml:space="preserve" x="156" y="676">setUsername()</text>
	<text font-family="Helvetica" font-size="4" fill="#000000" xml:space="preserve" x="156" y="682">setPassword()</text>
	<text font-family="Helvetica" font-size="4" fill="#000000" xml:space="preserve" x="156" y="688">setInstructorNotes()</text>
	<text font-family="Helvetica" font-size="4" fill="#000000" xml:space="preserve" x="156" y="694">setProject()</text>
</g>
<g>
	<line stroke="black" stroke-opacity="1" x1="181" y1="300" x2="175" y2="306" />
	<line stroke="black" stroke-opacity="1" x1="181" y1="300" x2="187" y2="306" />
	<line stroke-dasharray="4,4" stroke="black" stroke-opacity="1" x1="181" y1="336" x2="181" y2="300" />
</g>
<g>
	<line stroke-dasharray="4,4" stroke="#000000" stroke-opacity="1" x1="179" y1="473" x2="180" y2="430" />
	<line stroke="#000000" stroke-opacity="1" x1="181" y1="425" x2="174" y2="430" />
	<line stroke="#000000" stroke-opacity="1" x1="181" y1="425" x2="186" y2="431" />
	<line stroke="#000000" stroke-opacity="1" x1="174" y1="430" x2="186" y2="431" />
</g>
<g>
	<rect fill="#cbcbcb" stroke="none" stroke-opacity="1" x="138" y="194" width="2" height="120" />
	<rect fill="#cbcbcb" stroke="none" stroke-opacity="1" x="90" y="312" width="50" height="2" />
	<rect fill="#ffffc0" stroke="black" stroke-width="1" stroke-opacity="1" x="87" y="191" width="51" height="121" />
	<text font-family="Helvetica" font-size="4" fill="#000000" xml:space="preserve" font-weight="bold" text-anchor="middle" x="113" y="195">ClientCompany</text>
	<line stroke="black" stroke-opacity="1" x1="87" y1="197" x2="138" y2="197" />
	<text font-family="Helvetica" font-size="4" fill="#000000" xml:space="preserve" x="88" y="201">_companyName</text>
	<text font-family="Helvetica" font-size="4" fill="#000000" xml:space="preserve" x="88" y="207">_website</text>
	<text font-family="Helvetica" font-size="4" fill="#000000" xml:space="preserve" x="88" y="213">_streetAddress</text>
	<text font-family="Helvetica" font-size="4" fill="#000000" xml:space="preserve" x="88" y="219">_state</text>
	<text font-family="Helvetica" font-size="4" fill="#000000" xml:space="preserve" x="88" y="225">_city</text>
	<text font-family="Helvetica" font-size="4" fill="#000000" xml:space="preserve" x="88" y="231">_postalCode</text>
	<line stroke="black" stroke-opacity="1" x1="87" y1="233" x2="138" y2="233" />
	<text font-family="Helvetica" font-size="4" fill="#000000" xml:space="preserve" x="88" y="237">__construct()</text>
	<text font-family="Helvetica" font-size="4" fill="#000000" xml:space="preserve" x="88" y="243">getCompanyName()</text>
	<text font-family="Helvetica" font-size="4" fill="#000000" xml:space="preserve" x="88" y="249">setCompanyName()</text>
	<text font-family="Helvetica" font-size="4" fill="#000000" xml:space="preserve" x="88" y="255">getWebsite()</text>
	<text font-family="Helvetica" font-size="4" fill="#000000" xml:space="preserve" x="88" y="261">setWebsite()</text>
	<text font-family="Helvetica" font-size="4" fill="#000000" xml:space="preserve" x="88" y="267">getStreetAddress()</text>
	<text font-family="Helvetica" font-size="4" fill="#000000" xml:space="preserve" x="88" y="273">setStreetAddress()</text>
	<text font-family="Helvetica" font-size="4" fill="#000000" xml:space="preserve" x="88" y="279">getState()</text>
	<text font-family="Helvetica" font-size="4" fill="#000000" xml:space="preserve" x="88" y="285">setState()</text>
	<text font-family="Helvetica" font-size="4" fill="#000000" xml:space="preserve" x="88" y="291">getCity()</text>
	<text font-family="Helvetica" font-size="4" fill="#000000" xml:space="preserve" x="88" y="297">setCity()</text>
	<text font-family="Helvetica" font-size="4" fill="#000000" xml:space="preserve" x="88" y="303">getPostalCode()</text>
	<text font-family="Helvetica" font-size="4" fill="#000000" xml:space="preserve" x="88" y="309">setPostalCode()</text>
</g>
<g>
	<line stroke="#000000" stroke-opacity="1" x1="153" y1="253" x2="147" y2="253" />
	<line stroke="#000000" stroke-opacity="1" x1="141" y1="253" x2="147" y2="259" />
	<line stroke="#000000" stroke-opacity="1" x1="141" y1="253" x2="147" y2="247" />
	<line stroke="#000000" stroke-opacity="1" x1="147" y1="259" x2="147" y2="247" />
</g>
<g>
	<rect fill="#cbcbcb" stroke="none" stroke-opacity="1" x="259" y="226" width="2" height="56" />
	<rect fill="#cbcbcb" stroke="none" stroke-opacity="1" x="221" y="280" width="40" height="2" />
	<rect fill="#ffffc0" stroke="black" stroke-width="1" stroke-opacity="1" x="218" y="223" width="41" height="57" />
	<text font-family="Helvetica" font-size="4" fill="#000000" xml:space="preserve" font-weight="bold" text-anchor="middle" x="239" y="227">ClientDB</text>
	<line stroke="black" stroke-opacity="1" x1="218" y1="229" x2="259" y2="229" />
	<line stroke="black" stroke-opacity="1" x1="218" y1="231" x2="259" y2="231" />
	<text font-family="Helvetica" font-size="4" fill="#000000" xml:space="preserve" x="219" y="235">__construct()</text>
	<text font-family="Helvetica" font-size="4" fill="#000000" xml:space="preserve" text-decoration="underline" x="219" y="241">getClient()</text>
	<text font-family="Helvetica" font-size="4" fill="#000000" xml:space="preserve" text-decoration="underline" x="219" y="247">insertClient()</text>
	<text font-family="Helvetica" font-size="4" fill="#000000" xml:space="preserve" text-decoration="underline" x="219" y="253">updateClient()</text>
	<text font-family="Helvetica" font-size="4" fill="#000000" xml:space="preserve" text-decoration="underline" x="219" y="259">deleteClient()</text>
	<text font-family="Helvetica" font-size="4" fill="#000000" xml:space="preserve" text-decoration="underline" x="219" y="265">matchToRow()</text>
	<text font-family="Helvetica" font-size="4" fill="#000000" xml:space="preserve" text-decoration="underline" x="219" y="271">getCompanyID()</text>
	<text font-family="Helvetica" font-size="4" fill="#000000" xml:space="preserve" text-decoration="underline" x="219" y="277">isCompany()</text>
</g>
<g>
	<line stroke="black" stroke-opacity="1" x1="204" y1="253" x2="210" y2="259" />
	<line stroke="black" stroke-opacity="1" x1="204" y1="253" x2="210" y2="247" />
	<line stroke-dasharray="4,4" stroke="black" stroke-opacity="1" x1="217" y1="253" x2="204" y2="253" />
</g>
<g>
	<rect fill="#cbcbcb" stroke="none" stroke-opacity="1" x="130" y="25" width="2" height="38" />
	<rect fill="#cbcbcb" stroke="none" stroke-opacity="1" x="98" y="61" width="34" height="2" />
	<rect fill="#ffffc0" stroke="black" stroke-width="1" stroke-opacity="1" x="95" y="22" width="35" height="39" />
	<text font-family="Helvetica" font-size="4" fill="#000000" xml:space="preserve" font-weight="bold" font-style="italic" text-anchor="middle" x="113" y="26">RestDB</text>
	<line stroke="black" stroke-opacity="1" x1="95" y1="28" x2="130" y2="28" />
	<line stroke="black" stroke-opacity="1" x1="95" y1="30" x2="130" y2="30" />
	<text font-family="Helvetica" font-size="4" fill="#000000" xml:space="preserve" x="96" y="34">__construct()</text>
	<text font-family="Helvetica" font-size="4" fill="#000000" xml:space="preserve" text-decoration="underline" x="96" y="40">get()</text>
	<text font-family="Helvetica" font-size="4" fill="#000000" xml:space="preserve" text-decoration="underline" x="96" y="46">insert()</text>
	<text font-family="Helvetica" font-size="4" fill="#000000" xml:space="preserve" text-decoration="underline" x="96" y="52">update()</text>
	<text font-family="Helvetica" font-size="4" fill="#000000" xml:space="preserve" text-decoration="underline" x="96" y="58">delete()</text>
</g>
<g>
	<line stroke="#000000" stroke-opacity="1" x1="238" y1="222" x2="238" y2="86" />
</g>
<g>
	<line stroke="#000000" stroke-opacity="1" x1="238" y1="86" x2="114" y2="86" />
</g>
<g>
	<line stroke="#000000" stroke-opacity="1" x1="114" y1="86" x2="114" y2="70" />
	<line stroke="#000000" stroke-opacity="1" x1="114" y1="64" x2="108" y2="70" />
	<line stroke="#000000" stroke-opacity="1" x1="114" y1="64" x2="120" y2="70" />
	<line stroke="#000000" stroke-opacity="1" x1="108" y1="70" x2="120" y2="70" />
</g>
<g>
	<rect fill="#cbcbcb" stroke="none" stroke-opacity="1" x="293" y="351" width="2" height="62" />
	<rect fill="#cbcbcb" stroke="none" stroke-opacity="1" x="257" y="411" width="38" height="2" />
	<rect fill="#ffffc0" stroke="black" stroke-width="1" stroke-opacity="1" x="254" y="348" width="39" height="63" />
	<text font-family="Helvetica" font-size="4" fill="#000000" xml:space="preserve" font-weight="bold" text-anchor="middle" x="274" y="352">ProjectDB</text>
	<line stroke="black" stroke-opacity="1" x1="254" y1="354" x2="293" y2="354" />
	<line stroke="black" stroke-opacity="1" x1="254" y1="356" x2="293" y2="356" />
	<text font-family="Helvetica" font-size="4" fill="#000000" xml:space="preserve" x="255" y="360">__construct()</text>
	<text font-family="Helvetica" font-size="4" fill="#000000" xml:space="preserve" text-decoration="underline" x="255" y="366">getAllProjects()</text>
	<text font-family="Helvetica" font-size="4" fill="#000000" xml:space="preserve" text-decoration="underline" x="255" y="372">getProject()</text>
	<text font-family="Helvetica" font-size="4" fill="#000000" xml:space="preserve" text-decoration="underline" x="255" y="378">insertProject()</text>
	<text font-family="Helvetica" font-size="4" fill="#000000" xml:space="preserve" text-decoration="underline" x="255" y="384">updateProject()</text>
	<text font-family="Helvetica" font-size="4" fill="#000000" xml:space="preserve" text-decoration="underline" x="255" y="390">deleteProject()</text>
	<text font-family="Helvetica" font-size="4" fill="#000000" xml:space="preserve" text-decoration="underline" x="255" y="396">getClientID()</text>
	<text font-family="Helvetica" font-size="4" fill="#000000" xml:space="preserve" text-decoration="underline" x="255" y="402">isClient()</text>
	<text font-family="Helvetica" font-size="4" fill="#000000" xml:space="preserve" text-decoration="underline" x="255" y="408">matchToRow()</text>
</g>
<g>
	<rect fill="#cbcbcb" stroke="none" stroke-opacity="1" x="136" y="110" width="2" height="44" />
	<rect fill="#cbcbcb" stroke="none" stroke-opacity="1" x="94" y="152" width="44" height="2" />
	<rect fill="#ffffc0" stroke="black" stroke-width="1" stroke-opacity="1" x="91" y="107" width="45" height="45" />
	<text font-family="Helvetica" font-size="4" fill="#000000" xml:space="preserve" font-weight="bold" text-anchor="middle" x="114" y="111">CompanyDB</text>
	<line stroke="black" stroke-opacity="1" x1="91" y1="113" x2="136" y2="113" />
	<line stroke="black" stroke-opacity="1" x1="91" y1="115" x2="136" y2="115" />
	<text font-family="Helvetica" font-size="4" fill="#000000" xml:space="preserve" x="92" y="119">__construct()</text>
	<text font-family="Helvetica" font-size="4" fill="#000000" xml:space="preserve" text-decoration="underline" x="92" y="125">getCompany()</text>
	<text font-family="Helvetica" font-size="4" fill="#000000" xml:space="preserve" text-decoration="underline" x="92" y="131">insertCompany()</text>
	<text font-family="Helvetica" font-size="4" fill="#000000" xml:space="preserve" text-decoration="underline" x="92" y="137">updateCompany()</text>
	<text font-family="Helvetica" font-size="4" fill="#000000" xml:space="preserve" text-decoration="underline" x="92" y="143">deleteCompany()</text>
	<text font-family="Helvetica" font-size="4" fill="#000000" xml:space="preserve" text-decoration="underline" x="92" y="149">matchToRow()</text>
</g>
<g>
	<rect fill="#cbcbcb" stroke="none" stroke-opacity="1" x="99" y="560" width="2" height="56" />
	<rect fill="#cbcbcb" stroke="none" stroke-opacity="1" x="43" y="614" width="58" height="2" />
	<rect fill="#ffffc0" stroke="black" stroke-width="1" stroke-opacity="1" x="40" y="557" width="59" height="57" />
	<text font-family="Helvetica" font-size="4" fill="#000000" xml:space="preserve" font-weight="bold" text-anchor="middle" x="70" y="561">CourseDB</text>
	<line stroke="black" stroke-opacity="1" x1="40" y1="563" x2="99" y2="563" />
	<line stroke="black" stroke-opacity="1" x1="40" y1="565" x2="99" y2="565" />
	<text font-family="Helvetica" font-size="4" fill="#000000" xml:space="preserve" x="41" y="569">__construct()</text>
	<text font-family="Helvetica" font-size="4" fill="#000000" xml:space="preserve" text-decoration="underline" x="41" y="575">getCourse()</text>
	<text font-family="Helvetica" font-size="4" fill="#000000" xml:space="preserve" text-decoration="underline" x="41" y="581">getCourseByProjectID()</text>
	<text font-family="Helvetica" font-size="4" fill="#000000" xml:space="preserve" text-decoration="underline" x="41" y="587">insertCourse()</text>
	<text font-family="Helvetica" font-size="4" fill="#000000" xml:space="preserve" text-decoration="underline" x="41" y="593">updateCourse()</text>
	<text font-family="Helvetica" font-size="4" fill="#000000" xml:space="preserve" text-decoration="underline" x="41" y="599">deleteCourse()</text>
	<text font-family="Helvetica" font-size="4" fill="#000000" xml:space="preserve" text-decoration="underline" x="41" y="605">matchToRow()</text>
	<text font-family="Helvetica" font-size="4" fill="#000000" xml:space="preserve" text-decoration="underline" x="41" y="611">getProjectID()</text>
</g>
<g>
	<rect fill="#cbcbcb" stroke="none" stroke-opacity="1" x="52" y="109" width="2" height="20" />
	<rect fill="#cbcbcb" stroke="none" stroke-opacity="1" x="20" y="127" width="34" height="2" />
	<rect fill="#ffffc0" stroke="black" stroke-width="1" stroke-opacity="1" x="17" y="106" width="35" height="21" />
	<text font-family="Helvetica" font-size="4" fill="#000000" xml:space="preserve" font-weight="bold" text-anchor="middle" x="35" y="110">UserDB</text>
	<line stroke="black" stroke-opacity="1" x1="17" y1="112" x2="52" y2="112" />
	<line stroke="black" stroke-opacity="1" x1="17" y1="114" x2="52" y2="114" />
	<text font-family="Helvetica" font-size="4" fill="#000000" xml:space="preserve" x="18" y="118">__construct()</text>
	<text font-family="Helvetica" font-size="4" fill="#000000" xml:space="preserve" text-decoration="underline" x="18" y="124">login()</text>
</g>
<g>
	<line stroke="#000000" stroke-opacity="1" x1="113" y1="106" x2="113" y2="70" />
	<line stroke="#000000" stroke-opacity="1" x1="113" y1="64" x2="107" y2="70" />
	<line stroke="#000000" stroke-opacity="1" x1="113" y1="64" x2="119" y2="70" />
	<line stroke="#000000" stroke-opacity="1" x1="107" y1="70" x2="119" y2="70" />
</g>
<g>
	<line stroke="#000000" stroke-opacity="1" x1="71" y1="556" x2="71" y2="87" />
</g>
<g>
	<line stroke="#000000" stroke-opacity="1" x1="277" y1="347" x2="277" y2="87" />
</g>
<g>
	<line stroke="#000000" stroke-opacity="1" x1="35" y1="105" x2="35" y2="87" />
</g>
<g>
	<line stroke="black" stroke-opacity="1" x1="201" y1="381" x2="207" y2="387" />
	<line stroke="black" stroke-opacity="1" x1="201" y1="381" x2="207" y2="375" />
	<line stroke-dasharray="4,4" stroke="black" stroke-opacity="1" x1="253" y1="381" x2="201" y2="381" />
</g>
<g>
	<line stroke="black" stroke-opacity="1" x1="113" y1="190" x2="119" y2="184" />
	<line stroke="black" stroke-opacity="1" x1="113" y1="190" x2="107" y2="184" />
	<line stroke-dasharray="4,4" stroke="black" stroke-opacity="1" x1="113" y1="155" x2="113" y2="190" />
</g>
<g>
	<line stroke="black" stroke-opacity="1" x1="154" y1="587" x2="148" y2="581" />
	<line stroke="black" stroke-opacity="1" x1="154" y1="587" x2="148" y2="593" />
	<line stroke-dasharray="4,4" stroke="black" stroke-opacity="1" x1="102" y1="587" x2="154" y2="587" />
</g>
<g>
	<line stroke="#000000" stroke-opacity="1" x1="277" y1="87" x2="113" y2="87" />
</g>
<g>
	<line stroke="#000000" stroke-opacity="1" x1="35" y1="87" x2="114" y2="87" />
</g>
<g>
	<line stroke="#000000" stroke-opacity="1" x1="71" y1="87" x2="114" y2="87" />
</g>
<g>
	<line stroke="#000000" stroke-opacity="1" x1="114" y1="87" x2="114" y2="70" />
	<line stroke="#000000" stroke-opacity="1" x1="114" y1="64" x2="108" y2="70" />
	<line stroke="#000000" stroke-opacity="1" x1="114" y1="64" x2="120" y2="70" />
	<line stroke="#000000" stroke-opacity="1" x1="108" y1="70" x2="120" y2="70" />
</g>
<g>
	<line stroke="#000000" stroke-opacity="1" x1="113" y1="87" x2="113" y2="70" />
	<line stroke="#000000" stroke-opacity="1" x1="113" y1="64" x2="107" y2="70" />
	<line stroke="#000000" stroke-opacity="1" x1="113" y1="64" x2="119" y2="70" />
	<line stroke="#000000" stroke-opacity="1" x1="107" y1="70" x2="119" y2="70" />
</g>
<g>
	<line stroke="#000000" stroke-opacity="1" x1="114" y1="87" x2="114" y2="70" />
	<line stroke="#000000" stroke-opacity="1" x1="114" y1="64" x2="108" y2="70" />
	<line stroke="#000000" stroke-opacity="1" x1="114" y1="64" x2="120" y2="70" />
	<line stroke="#000000" stroke-opacity="1" x1="108" y1="70" x2="120" y2="70" />
</g>
</svg>
